<?xml version="1.0" encoding="utf-8"?>
<!-- Generator: Adobe Illustrator 12.0.0, SVG Export Plug-In . SVG Version: 6.00 Build 51448)  -->
<!DOCTYPE svg PUBLIC "-//W3C//DTD SVG 1.1//EN" "http://www.w3.org/Graphics/SVG/1.1/DTD/svg11.dtd" [
	<!ENTITY ns_svg "http://www.w3.org/2000/svg">
	<!ENTITY ns_xlink "http://www.w3.org/1999/xlink">
]>
<svg  version="1.1" id="Layer_1" xmlns="&ns_svg;" xmlns:xlink="&ns_xlink;" width="916.886" height="413.305"
	 viewBox="0 0 916.886 413.305" overflow="visible" enable-background="new 0 0 916.886 413.305" xml:space="preserve">
<g>
	<g>
		<path d="M724.505,115.682c-2.228-9.417,3.102-19.086-3.721-22.322c-6.686-3.16-16.2,0.755-19.069,3.72
			c1.145,1.317,2.114,2.829,2.793,4.651c3.584-1.067,5.793-3.489,11.161-2.791c1.181,1.143,1.646,2.984,1.395,5.581
			c-8.082-0.64-13.411,1.472-15.813,6.51c-3.08,13.701,11.841,15.601,18.139,9.768c0.444,2.189,2.46,2.809,4.186,3.721
			c0.755-2.191,2.712-3.16,3.721-5.117C725.434,118.452,724.875,117.271,724.505,115.682z M717.064,116.147
			c-5.773,8.217-13.855-8.099,0-6.046V116.147z"/>
	</g>
</g>
<g>
	<g>
		<path d="M680.325,80.802c-2.984,0.174-4.903-0.678-7.441-0.929c-0.311,4.494,0.621,10.232-0.465,13.952
			c-24.495-8.72-22.633,40.595,1.395,27.903c1.239,2.326,5.35,1.046,7.442,0.929C679.375,110.277,680.731,94.639,680.325,80.802z
			 M672.883,115.216c-1.801,1.822-5.31,2.327-7.906,0.931c-3.915-6.434-0.893-23.079,7.906-15.347V115.216z"/>
	</g>
</g>
<g>
	<g>
		<path d="M651.954,110.566c2.229-13.12-8.506-22.555-19.066-17.672c-5.95,2.751-10.115,13.913-6.51,22.788
			c3.235,8.004,17.092,11.626,24.647,4.186c-0.388-2.249-1.531-3.739-3.257-4.651c-4.224,3.76-14.745,2.694-13.02-4.186
			C640.368,110.78,647.072,111.575,651.954,110.566z M641.258,98.94c0.969,1.183,1.144,3.196,1.86,4.649
			c-1.879,1.086-5.735,0.155-8.37,0.466C634.805,100.259,636.55,98.105,641.258,98.94z"/>
	</g>
</g>
<g>
	<g>
		<path d="M772.872,93.359c-2.111-0.873-4.787-0.795-7.44-0.465c-2.789,0.329-4.962,0.621-6.976,2.326
			c-7.576,6.375-5.794,24.725,3.721,27.903c4.146,1.396,8.951,0.465,11.627-0.929C782.852,117.426,783.296,97.642,772.872,93.359z
			 M769.617,117.543c-4.573,1.162-6.744-0.989-7.44-6.048c-0.466-3.333-0.137-9.454,0.929-11.161c2.5-4.012,8.12-2.074,8.836,2.326
			C772.754,107.679,772.096,114.327,769.617,117.543z"/>
	</g>
</g>
<path d="M806.821,96.149c4.167-4.572,14.844-5.25,16.278,1.396c1.375,6.354-0.447,18.409,0,25.111c-2.016,0.216-4.962,0.7-7.441,0
	c-0.562-7.653,1.144-17.593-0.931-23.717c-3.196-0.407-4.436,1.143-6.51,1.86c0,7.285,0,14.571,0,21.856
	c-2.229,0.64-4.478-0.134-7.44,0.466c-0.544-7.846,1.104-17.866-0.932-24.183c-3.372-0.426-5.154,0.736-6.975,1.86
	c0,7.285,0,14.571,0,21.856c-2.502,0.912-4.439-0.193-7.441,0.466c-0.253-9.689,0.678-20.521-0.931-28.832
	c2.305-0.176,3.663-1.298,6.046-1.396c1.298-0.078,1.338,1.143,1.395,2.326C796.069,92.002,803.82,91.633,806.821,96.149z"/>
<path d="M751.479,95.22c-0.445,2.344-2.268,3.313-3.257,5.115c-2.46-0.852-3.352-2.441-6.044-1.86
	c-4.807,1.027-6.552,17.771,0,19.069c2.229,0.445,3.643-0.505,6.51-2.327c1.977,0.813,2.83,2.732,3.72,4.651
	c-4.534,5.367-15.752,4.515-19.532,0c-3.081-3.662-3.759-10-3.255-14.416C730.822,94.658,742.449,88.127,751.479,95.22z"/>
<path d="M695.206,123.123c-2.422-0.231-5.775,0.503-7.44-0.466c0-9.765,0-19.531,0-29.297c2.479-0.155,4.962-0.311,6.976-0.931
	C695.827,101.731,694.895,113.047,695.206,123.123z"/>
<path d="M585.449,81.733c2.559,1.086,8.392,0.038,10.234,0.465c2.538,8.156,5.037,16.335,6.51,25.577
	c2.055-7.187,4.708-17.111,6.976-25.577c2.906-0.098,7.346-0.117,10.697,0c1.375,12.248,2.866,26.781,3.72,40.924
	c-2.791,0-5.58,0-8.369,0c-0.64-8.177-1.844-17.826-1.396-25.577c-1.511,1.395-1.59,4.127-2.324,6.51
	c-1.688,5.408-3.606,12.614-5.583,19.067c-2.479,0-4.961,0-7.44,0c-2.577-10.134-4.553-15.968-6.51-26.043
	c-1.415,7.888-1.124,17.478-1.862,26.043c-2.866-0.25-6.742,0.524-8.835-0.466C582.504,108.88,583.551,94.89,585.449,81.733z"/>
<path d="M691.02,78.012c1.472,1.919,2.48,4.341,6.046,4.186c-0.774,1.24-1.978,2.053-2.791,3.255c0.428,1.026,1.029,3.1,0.466,3.72
	c-1.026-0.696-2.498-0.912-3.255-1.86c-1.026,0.679-2.5,0.91-3.255,1.86c-0.698-2.907,0.23-5.446-2.792-6.51
	C687.977,81.79,690.691,81.112,691.02,78.012z"/>
<path d="M829.609,121.264c1.048-3.391,4.787-5.543,6.977-8.837c2.519-3.798,6.724-11.316,7.442-16.744
	c3.002-22.769-26.006-26.042-48.368-26.042c-34.452,0-67.338,7.713-95.337,12.092c23.62-6.646,56.93-13.216,88.361-14.882
	c22.012-1.164,49.645,1.374,58.599,12.092c8.138,9.765,0.95,24.608-5.582,32.087C838.079,115.178,833.893,120.061,829.609,121.264z"
	/>
<rect x="0.25" y="317.903" stroke="#000000" stroke-width="0.5" stroke-linecap="round" stroke-linejoin="round" width="256" height="8.667"/>
<rect x="342.917" y="318.236" stroke="#000000" stroke-width="0.5" stroke-linecap="round" stroke-linejoin="round" width="569" height="9"/>
<path d="M91.54,158.375c-2.085-1.947-4.092-5.39-7.083-8.499c-4.328-4.485-11.056-8.125-5.666-14.637
	c-1.181-0.571-1.85-1.613-2.36-2.833c-21.72,0.629-49.579-1.22-71.3,0.944c-0.216,3.03,3.364,2.302,2.833,5.666
	c-0.983,2.479-2.99,3.935-2.36,8.027c2.4,2.243,3.128,4.998,2.36,9.443c1.338,1.004,3.896,5.155,3.777,7.083
	c-0.059,0.688-1.534,1.948-1.416,2.361c0.177,0.669,1.771,1.042,2.36,1.889c3.287,4.801,1.436,10.782,2.834,17.943l59.494,1.416
	c2.656-2.538,4.25-6.139,6.61-8.972c-0.668-2.636-3.069-3.561-2.36-7.555c0.963-1.377,3.049-1.652,5.666-1.417
	C87.9,166.402,91.815,164.474,91.54,158.375"/>
<path d="M7.417,121.236v-33h70c0,0,65.5,1.5,64.5,61.5c0,0,7,49.5-33,69l37.5,78.5h-42.5l-30.5-69c0,0-20,5-28.5,0v67.5h-37.5v-101
	h66.5c0,0,31.5,0,31.5-37.5c0,0,0.5-31.5-28.5-35L7.417,121.236z"/>
<g>
	<g>
		<path d="M258.417,248.236c0,0,8.5-65.5-52-70c0,0-70-3-66,68.5c0,0,2.5,35.5,41,52c0,0,29.5,9.5,69.5-14l-14.5-21
			c0,0-20.5,22.5-48.5,7.5c0,0-7.75-2.75-15.75-23.25l1.25,0.25H258.417z M202.417,201.736c22,0,29.25,25.5,24,25.5h-53.5
			C166.667,227.236,180.417,201.736,202.417,201.736z"/>
	</g>
</g>
<path d="M254.917,181.236h32l30,75l32-76h62v8c0,0,1,8.5,9,1c0,0,56.5-35.5,71,20.5v88h-30.5v-73.5c0,0-8-38-48-5.5v77.5h-31.5
	v-103.5c0,0-1.5-9-5-0.5l-49.5,122c0,0-10,28.5-36,29h-24.5l5.5-26.5h18.5c0,0,14.5-9.5,8.5-24.5L254.917,181.236z"/>
<g>
	<g>
		<path d="M563.583,176.569c-34.426,0-62.333,27.908-62.333,62.333s27.907,62.333,62.333,62.333s62.334-27.907,62.334-62.333
			S598.009,176.569,563.583,176.569z M562.583,271.569c-18.41,0-33.334-14.924-33.334-33.332c0-18.41,14.924-33.334,33.334-33.334
			c18.408,0,33.332,14.924,33.332,33.334C595.916,256.645,580.992,271.569,562.583,271.569z"/>
	</g>
</g>
<rect x="636.25" y="136.569" width="32" height="160"/>
<g>
	<g>
		<path d="M768.25,136.569l-0.667,48.667c0.667,11.333-6.667,4-6.667,4c-24.667-20.667-52.666-5.333-52.666-5.333
			c-44.666,30-21.334,87.333-21.334,87.333c30,52,76,18.667,76,18.667c7.333-9.333,6.667,7.333,6.667,7.333h28.667V136.569H768.25z
			 M768.917,261.236c0,0-17.333,17.999-38,9.333c0,0-21.667-5-17.667-40c0,0,4.668-29.667,34.334-24c0,0,10.332,0.667,19.666,10.667
			l1.667,2.333V261.236z"/>
	</g>
</g>
<path d="M896.417,215.736l12.5-22c0,0-35.5-24-65.5-13.5c0,0-30.5,10-28.5,32.5c0,0-2.5,25,26,34c0,0,19.5,2.5,31.5,7.5
	c0,0,24,12.5-2,22c0,0-28,3-46.5-16l-14,23c0,0,14,13.5,51,18c0,0,41,0.5,51-30c0,0,8.5-30-25.5-42.5c0,0-31.5-4.5-38-9
	c0,0-12.5-10,7-18c0,0,21.5-3.5,38.5,11L896.417,215.736z"/>
<g>
	<path d="M354.167,386.555v-7.438h26.688v23.355c-4.096,3.264-8.319,5.718-12.673,7.363s-8.82,2.469-13.402,2.469
		c-6.186,0-11.806-1.325-16.86-3.978c-5.055-2.651-8.871-6.485-11.448-11.502c-2.578-5.017-3.866-10.621-3.866-16.813
		c0-6.135,1.281-11.86,3.844-17.178s6.25-9.267,11.062-11.847c4.811-2.58,10.353-3.87,16.624-3.87c4.553,0,8.669,0.739,12.349,2.217
		s6.565,3.536,8.656,6.176c2.09,2.64,3.68,6.083,4.768,10.329l-7.54,2.063c-0.944-3.214-2.117-5.74-3.518-7.58
		c-1.401-1.84-3.403-3.313-6.005-4.419c-2.603-1.106-5.491-1.66-8.665-1.66c-3.804,0-7.093,0.581-9.866,1.743
		c-2.774,1.162-5.013,2.689-6.714,4.583s-3.023,3.974-3.967,6.239c-1.602,3.902-2.402,8.134-2.402,12.694
		c0,5.623,0.965,10.328,2.896,14.115c1.93,3.787,4.739,6.598,8.429,8.434s7.607,2.754,11.754,2.754
		c3.604,0,7.121-0.693,10.553-2.082s6.033-2.87,7.807-4.445v-11.723H354.167z"/>
</g>
<g>
	<path d="M404.167,381.549c0-10.456,2.808-18.642,8.423-24.558s12.863-8.874,21.745-8.874c5.815,0,11.059,1.39,15.729,4.169
		s8.229,6.653,10.679,11.623c2.449,4.971,3.675,10.606,3.675,16.909c0,6.389-1.29,12.104-3.868,17.146s-6.231,8.859-10.958,11.451
		c-4.728,2.593-9.827,3.889-15.299,3.889c-5.931,0-11.23-1.432-15.9-4.297s-8.209-6.775-10.615-11.731
		C405.37,392.322,404.167,387.079,404.167,381.549z M412.792,381.688c0,7.592,2.038,13.571,6.115,17.939
		c4.076,4.369,9.19,6.553,15.342,6.553c6.266,0,11.422-2.205,15.471-6.617c4.048-4.411,6.072-10.67,6.072-18.777
		c0-5.127-0.866-9.604-2.597-13.428s-4.263-6.789-7.596-8.895s-7.073-3.158-11.222-3.158c-5.895,0-10.966,2.027-15.214,6.08
		C414.916,365.439,412.792,372.207,412.792,381.688z"/>
</g>
<g>
	<path d="M504.66,412.243l-24.331-63h9.025l16.352,45.777c1.316,3.668,2.418,7.107,3.305,10.316
		c0.974-3.438,2.104-6.877,3.394-10.316l17.013-45.777h8.511l-24.651,63H504.66z"/>
</g>
<g>
	<path d="M560.854,412.243v-63h45.563v7.438h-37.25v19.25h34.875v7.438h-34.875v21.438h38.688v7.438H560.854z"/>
</g>
<g>
	<path d="M625.854,412.243v-63h27.925c5.619,0,9.892,0.565,12.816,1.696c2.924,1.131,5.261,3.128,7.01,5.991s2.624,6.026,2.624,9.49
		c0,4.467-1.448,8.231-4.344,11.295c-2.896,3.063-7.369,5.01-13.419,5.84c2.205,1.062,3.882,2.108,5.028,3.142
		c2.435,2.238,4.736,5.033,6.904,8.385l10.913,17.161h-10.416l-8.344-13.118c-2.438-3.784-4.444-6.68-6.021-8.688
		c-1.577-2.007-2.989-3.412-4.236-4.215c-1.248-0.803-2.517-1.362-3.806-1.679c-0.947-0.2-2.495-0.301-4.646-0.301h-9.677v28
		H625.854z M634.167,376.993h17.935c3.813,0,6.792-0.393,8.938-1.18s3.776-2.046,4.892-3.776s1.674-3.612,1.674-5.644
		c0-2.975-1.081-5.421-3.242-7.338c-2.161-1.916-5.574-2.875-10.239-2.875h-19.956V376.993z"/>
</g>
<g>
	<path d="M699.604,412.243v-63h8.559l33.066,49.458v-49.458h8v63h-8.559l-33.066-49.458v49.458H699.604z"/>
</g>
<g>
	<path d="M778.167,380.549c0-10.456,2.808-18.642,8.423-24.558s12.863-8.874,21.745-8.874c5.815,0,11.059,1.39,15.729,4.169
		s8.229,6.653,10.679,11.623c2.449,4.971,3.675,10.606,3.675,16.909c0,6.389-1.29,12.104-3.868,17.146s-6.231,8.859-10.958,11.451
		c-4.728,2.593-9.827,3.889-15.299,3.889c-5.931,0-11.23-1.432-15.9-4.297s-8.209-6.775-10.615-11.731
		C779.37,391.322,778.167,386.079,778.167,380.549z M786.792,380.688c0,7.592,2.038,13.571,6.115,17.939
		c4.076,4.369,9.19,6.553,15.342,6.553c6.266,0,11.422-2.205,15.471-6.617c4.048-4.411,6.072-10.67,6.072-18.777
		c0-5.127-0.866-9.604-2.597-13.428s-4.263-6.789-7.596-8.895s-7.073-3.158-11.222-3.158c-5.895,0-10.966,2.027-15.214,6.08
		C788.916,364.439,786.792,371.207,786.792,380.688z"/>
</g>
<g>
	<path d="M862.667,411.811v-61.563h27.3c5.494,0,9.672,0.554,12.531,1.659c2.859,1.106,5.144,3.06,6.854,5.86
		s2.565,5.895,2.565,9.283c0,4.369-1.416,8.052-4.247,11.048c-2.832,2.996-7.205,4.9-13.119,5.712
		c2.156,1.036,3.795,2.059,4.915,3.066c2.381,2.185,4.631,4.912,6.751,8.184l10.67,16.75h-10.184l-8.158-12.804
		c-2.383-3.693-4.346-6.521-5.887-8.479c-1.542-1.959-2.923-3.328-4.142-4.107c-1.22-0.779-2.46-1.323-3.722-1.63
		c-0.926-0.194-2.439-0.292-4.542-0.292h-9.461v27.313H862.667z M870.792,377.436h17.535c3.729,0,6.647-0.385,8.758-1.155
		c2.109-0.77,3.713-2.002,4.811-3.696s1.646-3.536,1.646-5.525c0-2.912-1.062-5.307-3.184-7.184
		c-2.122-1.876-5.474-2.814-10.055-2.814h-19.512V377.436z"/>
</g>
<g>
	<path d="M178.402,32.717l24.455,24.204c3.999,4.044,7.413,6.79,10.242,8.238c2.828,1.449,5.657,2.271,8.486,2.466v1.813h-31.527
		v-1.813c1.888,0,3.247-0.317,4.077-0.952s1.245-1.343,1.245-2.124s-0.155-1.48-0.464-2.1c-0.31-0.618-1.327-1.773-3.052-3.467
		l-22.842-22.607v21.313c0,3.361,0.211,5.581,0.635,6.657c0.325,0.816,1.009,1.519,2.051,2.105c1.399,0.783,2.881,1.175,4.443,1.175
		h2.246v1.813h-28.25v-1.813h2.351c2.742,0,4.733-0.799,5.975-2.398c0.783-1.044,1.175-3.557,1.175-7.539V15
		c0-3.361-0.213-5.597-0.637-6.707c-0.326-0.783-0.996-1.468-2.008-2.056c-1.437-0.783-2.938-1.175-4.505-1.175h-2.351V3.25h28.25
		v1.813h-2.246c-1.53,0-3.012,0.376-4.443,1.126c-1.01,0.522-1.709,1.306-2.1,2.35c-0.391,1.045-0.586,3.198-0.586,6.462v20.204
		c0.65-0.617,2.88-2.683,6.687-6.194c9.664-8.844,15.505-14.745,17.522-17.704c0.879-1.301,1.318-2.438,1.318-3.414
		c0-0.748-0.342-1.406-1.025-1.976c-0.684-0.568-1.84-0.854-3.467-0.854h-1.514V3.25h24.332v1.813
		c-1.433,0.033-2.734,0.229-3.906,0.587s-2.604,1.051-4.297,2.078c-1.693,1.027-3.776,2.681-6.25,4.962
		c-0.717,0.65-4.021,3.979-9.913,9.989L178.402,32.717z"/>
	<path d="M239.302,23.375v35.938c0,2.809,0.204,4.678,0.612,5.608s1.013,1.624,1.813,2.081s2.263,0.686,4.387,0.686v1.75h-21.75
		v-1.75c2.174,0,3.634-0.212,4.38-0.637c0.746-0.424,1.338-1.126,1.775-2.105s0.657-2.857,0.657-5.633v-17.25
		c0-4.86-0.146-8.009-0.438-9.444c-0.228-1.044-0.585-1.77-1.071-2.177c-0.487-0.407-1.153-0.611-1.997-0.611
		c-0.909,0-2.013,0.244-3.312,0.732l-0.682-1.75l13.477-5.438H239.302z M235.233,0c1.37,0,2.537,0.481,3.5,1.444
		s1.444,2.13,1.444,3.5c0,1.371-0.481,2.546-1.444,3.524c-0.963,0.979-2.13,1.469-3.5,1.469c-1.371,0-2.546-0.489-3.524-1.469
		c-0.979-0.979-1.469-2.153-1.469-3.524c0-1.37,0.481-2.537,1.444-3.5S233.83,0,235.233,0z"/>
	<path d="M265.023,32.969c3.248-3.279,5.165-5.166,5.751-5.658c1.461-1.246,3.037-2.213,4.727-2.902
		c1.689-0.688,3.362-1.033,5.02-1.033c2.794,0,5.198,0.82,7.213,2.46c2.014,1.641,3.362,4.019,4.045,7.134
		c3.35-3.936,6.18-6.519,8.489-7.749c2.309-1.229,4.684-1.845,7.123-1.845c2.374,0,4.479,0.61,6.317,1.831s3.293,3.215,4.367,5.981
		c0.715,1.889,1.073,4.851,1.073,8.887v19.238c0,2.809,0.212,4.734,0.636,5.779c0.326,0.719,0.929,1.331,1.81,1.837
		s2.315,0.759,4.305,0.759v1.75h-22.125v-1.75h0.931c1.927,0,3.429-0.375,4.507-1.126c0.751-0.522,1.29-1.355,1.616-2.498
		c0.131-0.555,0.196-2.139,0.196-4.751V40.124c0-3.636-0.438-6.2-1.315-7.694c-1.268-2.078-3.297-3.117-6.09-3.117
		c-1.722,0-3.451,0.431-5.188,1.292c-1.738,0.861-3.841,2.463-6.309,4.803l-0.098,0.536l0.125,2.094v21.275
		c0,3.069,0.17,4.979,0.511,5.73c0.34,0.751,0.98,1.38,1.922,1.886c0.94,0.506,2.546,0.759,4.817,0.759v1.75h-22.625v-1.75
		c2.465,0,4.16-0.293,5.085-0.881c0.924-0.588,1.564-1.47,1.922-2.646c0.162-0.555,0.243-2.171,0.243-4.849V40.129
		c0-3.635-0.535-6.264-1.604-7.887c-1.426-2.119-3.418-3.18-5.977-3.18c-1.75,0-3.483,0.479-5.2,1.438
		c-2.689,1.454-4.763,3.09-6.22,4.907v23.905c0,2.939,0.202,4.85,0.608,5.73c0.405,0.882,1.005,1.543,1.8,1.983
		c0.795,0.441,2.408,0.661,4.842,0.661v1.75h-22.188v-1.75c2.059,0,3.496-0.22,4.313-0.661c0.816-0.44,1.438-1.143,1.862-2.105
		s0.638-2.833,0.638-5.608V42.188c0-4.917-0.146-8.092-0.438-9.524c-0.228-1.074-0.585-1.815-1.071-2.223
		c-0.487-0.406-1.153-0.61-1.997-0.61c-0.909,0-1.997,0.244-3.263,0.732l-0.73-1.75l13.519-5.438h2.106V32.969z"/>
</g>
<g>
	<path d="M139.18,86.691v0.962c-1.386,0.72-2.378,1.471-2.977,2.253s-0.897,1.635-0.897,2.558c0,0.548,0.079,0.923,0.236,1.126
		c0.142,0.219,0.314,0.329,0.52,0.329c0.205,0,0.48-0.059,0.827-0.176c0.347-0.117,0.662-0.176,0.945-0.176
		c0.646,0,1.208,0.239,1.689,0.717s0.721,1.062,0.721,1.751c0,0.752-0.291,1.399-0.871,1.939c-0.581,0.541-1.303,0.811-2.166,0.811
		c-1.052,0-2.001-0.454-2.849-1.362s-1.271-2.027-1.271-3.358c0-1.565,0.521-3.025,1.564-4.379
		C135.694,88.332,137.204,87.333,139.18,86.691z M150.366,86.754v0.893c-1.581,0.908-2.621,1.723-3.122,2.443
		s-0.751,1.565-0.751,2.536c0,0.438,0.086,0.768,0.258,0.987c0.172,0.219,0.352,0.329,0.54,0.329c0.172,0,0.43-0.062,0.774-0.187
		c0.344-0.125,0.688-0.188,1.033-0.188c0.642,0,1.201,0.23,1.678,0.69c0.478,0.46,0.716,1.026,0.716,1.697
		c0,0.765-0.301,1.428-0.903,1.989c-0.603,0.562-1.341,0.842-2.217,0.842c-1.032,0-1.963-0.445-2.792-1.337
		c-0.829-0.891-1.244-2.001-1.244-3.33c0-1.642,0.524-3.139,1.572-4.491S148.442,87.317,150.366,86.754z"/>
	<path d="M180.329,110.379l0.781,0.165l-2.719,8.648h-24.594v-0.875h1.193c1.341,0,2.301-0.435,2.878-1.304
		c0.327-0.497,0.491-1.646,0.491-3.446V93.035c0-1.981-0.219-3.221-0.655-3.72c-0.608-0.687-1.513-1.03-2.714-1.03l10.398,7.438
		l-11.591-8.313h14.375v0.875c-1.685-0.016-2.867,0.14-3.545,0.467s-1.143,0.74-1.393,1.239c-0.25,0.499-0.375,1.69-0.375,3.575
		v19.962c0,1.297,0.125,2.187,0.375,2.671c0.188,0.328,0.476,0.57,0.867,0.726c0.39,0.156,1.608,0.234,3.653,0.234h2.318
		c2.435,0,4.145-0.18,5.128-0.54s1.881-0.998,2.693-1.913S179.517,112.35,180.329,110.379z"/>
	<path d="M191.087,97.066v17.281c0,1.341,0.097,2.234,0.292,2.679s0.483,0.776,0.865,0.994s1.079,0.327,2.093,0.327v0.844h-10.438
		v-0.844c1.047,0,1.75-0.101,2.109-0.304c0.359-0.203,0.645-0.538,0.855-1.006s0.316-1.364,0.316-2.69v-8.313
		c0-2.325-0.071-3.831-0.212-4.517c-0.11-0.499-0.283-0.846-0.518-1.042s-0.557-0.293-0.965-0.293c-0.439,0-0.973,0.117-1.601,0.352
		l-0.33-0.844l6.496-2.625H191.087z M189.161,85.848c0.655,0,1.213,0.23,1.673,0.69s0.69,1.018,0.69,1.673s-0.23,1.217-0.69,1.685
		s-1.018,0.702-1.673,0.702s-1.217-0.234-1.685-0.702s-0.702-1.03-0.702-1.685s0.23-1.213,0.69-1.673S188.49,85.848,189.161,85.848z
		"/>
	<path d="M204.603,90.629v7.063h5.016v1.656h-5.016v13.928c0,1.392,0.199,2.33,0.597,2.814c0.397,0.484,0.909,0.727,1.533,0.727
		c0.515,0,1.014-0.161,1.497-0.482c0.483-0.321,0.858-0.796,1.124-1.424h0.906c-0.548,1.534-1.324,2.688-2.326,3.463
		c-1.002,0.775-2.036,1.162-3.101,1.162c-0.721,0-1.426-0.2-2.115-0.598c-0.689-0.398-1.198-0.969-1.527-1.712
		c-0.329-0.742-0.493-1.887-0.493-3.435V99.348h-3.406v-0.781c0.863-0.345,1.745-0.929,2.647-1.752s1.71-1.798,2.424-2.924
		c0.365-0.594,0.872-1.681,1.522-3.261H204.603z"/>
	<path d="M215.282,105.816c-0.016,3.188,0.757,5.688,2.318,7.5c1.561,1.813,3.394,2.719,5.501,2.719c1.404,0,2.625-0.383,3.664-1.15
		s1.908-2.092,2.611-3.975l0.719,0.468c-0.328,2.147-1.281,4.096-2.858,5.845s-3.553,2.624-5.927,2.624
		c-2.577,0-4.784-1.004-6.619-3.012s-2.752-4.707-2.752-8.098c0-3.672,0.941-6.535,2.823-8.59s4.244-3.082,7.087-3.082
		c2.405,0,4.381,0.794,5.927,2.381c1.546,1.587,2.319,3.71,2.319,6.369H215.282z M215.282,104.441h9.938
		c-0.078-1.375-0.242-2.344-0.492-2.906c-0.391-0.875-0.973-1.563-1.746-2.063s-1.582-0.75-2.426-0.75
		c-1.297,0-2.457,0.504-3.48,1.512S215.454,102.645,215.282,104.441z"/>
	<path d="M239.274,97.066v4.828c1.795-3.219,3.637-4.828,5.526-4.828c0.858,0,1.568,0.262,2.13,0.785s0.843,1.129,0.843,1.816
		c0,0.609-0.204,1.125-0.61,1.547s-0.892,0.633-1.454,0.633c-0.548,0-1.161-0.271-1.839-0.813c-0.679-0.542-1.182-0.813-1.509-0.813
		c-0.281,0-0.585,0.157-0.913,0.47c-0.702,0.643-1.427,1.701-2.175,3.173v10.294c0,1.192,0.148,2.094,0.445,2.706
		c0.203,0.424,0.563,0.776,1.078,1.059s1.258,0.423,2.227,0.423v0.844h-11.031v-0.844c1.094,0,1.906-0.172,2.438-0.518
		c0.391-0.251,0.664-0.651,0.82-1.2c0.078-0.267,0.117-1.027,0.117-2.282v-8.313c0-2.507-0.051-4-0.153-4.478
		c-0.102-0.478-0.291-0.826-0.565-1.045c-0.274-0.219-0.616-0.329-1.023-0.329c-0.487,0-1.036,0.117-1.648,0.352l-0.235-0.844
		l6.54-2.625H239.274z"/>
	<path d="M261.103,116.089c-2.2,1.704-3.582,2.688-4.143,2.954c-0.843,0.391-1.74,0.586-2.692,0.586
		c-1.482,0-2.704-0.508-3.663-1.525c-0.96-1.017-1.439-2.354-1.439-4.012c0-1.048,0.234-1.955,0.702-2.722
		c0.64-1.063,1.751-2.064,3.335-3.003s4.217-2.081,7.9-3.426v-0.843c0-2.138-0.338-3.605-1.013-4.401s-1.657-1.194-2.945-1.194
		c-0.978,0-1.754,0.265-2.328,0.795c-0.59,0.53-0.885,1.138-0.885,1.824l0.047,1.356c0,0.717-0.186,1.27-0.556,1.66
		c-0.371,0.39-0.856,0.584-1.456,0.584c-0.584,0-1.062-0.203-1.432-0.608c-0.371-0.406-0.556-0.96-0.556-1.663
		c0-1.342,0.688-2.575,2.063-3.699s3.305-1.686,5.789-1.686c1.906,0,3.469,0.32,4.688,0.96c0.922,0.484,1.602,1.242,2.039,2.272
		c0.281,0.672,0.422,2.046,0.422,4.124v7.286c0,2.046,0.039,3.3,0.117,3.76c0.078,0.461,0.208,0.769,0.388,0.925
		c0.18,0.156,0.387,0.234,0.623,0.234c0.25,0,0.47-0.055,0.658-0.164c0.329-0.203,0.963-0.773,1.902-1.711v1.313
		c-1.754,2.354-3.429,3.531-5.026,3.531c-0.768,0-1.378-0.265-1.832-0.795C261.353,118.272,261.118,117.368,261.103,116.089z
		 M261.103,114.564v-8.186c-2.355,0.938-3.875,1.603-4.562,1.994c-1.232,0.688-2.113,1.408-2.643,2.158s-0.795,1.571-0.795,2.462
		c0,1.126,0.335,2.061,1.006,2.803c0.67,0.743,1.442,1.114,2.316,1.114C257.609,116.91,259.169,116.128,261.103,114.564z"/>
	<path d="M277.688,85.848v28.5c0,1.341,0.098,2.23,0.293,2.667s0.496,0.768,0.902,0.994s1.164,0.339,2.273,0.339v0.844h-10.563
		v-0.844c0.991,0,1.668-0.101,2.03-0.304c0.362-0.203,0.646-0.538,0.85-1.006s0.307-1.364,0.307-2.69V94.816
		c0-2.408-0.055-3.888-0.164-4.439s-0.285-0.929-0.527-1.131s-0.551-0.304-0.926-0.304c-0.406,0-0.922,0.125-1.547,0.375
		l-0.398-0.844l6.412-2.625H277.688z"/>
	<path d="M291.024,85.848v28.5c0,1.341,0.098,2.23,0.293,2.667s0.496,0.768,0.902,0.994s1.164,0.339,2.273,0.339v0.844h-10.563
		v-0.844c0.991,0,1.668-0.101,2.03-0.304c0.362-0.203,0.646-0.538,0.85-1.006s0.307-1.364,0.307-2.69V94.816
		c0-2.408-0.055-3.888-0.164-4.439s-0.285-0.929-0.527-1.131s-0.551-0.304-0.926-0.304c-0.406,0-0.922,0.125-1.547,0.375
		l-0.398-0.844l6.412-2.625H291.024z"/>
	<path d="M295.708,97.691h10.012v0.844h-0.492c-0.703,0-1.23,0.154-1.582,0.46c-0.352,0.307-0.527,0.689-0.527,1.145
		c0,0.614,0.258,1.464,0.773,2.55l5.245,10.882l4.786-11.915c0.266-0.646,0.398-1.286,0.398-1.917c0-0.284-0.055-0.497-0.164-0.639
		c-0.125-0.173-0.32-0.312-0.586-0.414s-0.734-0.154-1.406-0.154v-0.844h6.964v0.844c-0.578,0.063-1.023,0.189-1.336,0.377
		c-0.313,0.189-0.656,0.543-1.031,1.062c-0.141,0.221-0.406,0.826-0.797,1.817l-8.722,21.461c-0.845,2.081-1.952,3.654-3.321,4.718
		c-1.369,1.064-2.688,1.596-3.955,1.596c-0.924,0-1.683-0.266-2.277-0.798c-0.595-0.533-0.892-1.143-0.892-1.832
		c0-0.657,0.215-1.186,0.646-1.584c0.431-0.399,1.021-0.599,1.773-0.599c0.517,0,1.222,0.173,2.114,0.521
		c0.626,0.236,1.018,0.354,1.174,0.354c0.469,0,0.981-0.243,1.537-0.729c0.555-0.486,1.114-1.427,1.678-2.822l1.511-3.762
		l-7.703-16.194c-0.234-0.487-0.609-1.093-1.125-1.817c-0.391-0.55-0.711-0.92-0.961-1.109c-0.359-0.251-0.938-0.472-1.734-0.661
		V97.691z"/>
	<path d="M375.462,87.41v0.875c-0.828,0-1.5,0.148-2.016,0.445s-1.008,0.851-1.477,1.663c-0.313,0.547-0.805,1.851-1.477,3.912
		l-8.826,25.604h-0.95l-7.248-20.334l-7.172,20.334h-0.851l-9.435-26.389c-0.703-1.963-1.148-3.125-1.336-3.483
		c-0.313-0.592-0.738-1.032-1.277-1.32s-1.27-0.433-2.191-0.433V87.41h11.747v0.875h-0.563c-0.828,0-1.461,0.186-1.898,0.558
		s-0.656,0.822-0.656,1.349c0,0.542,0.344,1.79,1.031,3.743l6.266,17.815l5.27-15.164l-0.933-2.617l-0.751-2.128
		c-0.329-0.78-0.697-1.466-1.104-2.059c-0.204-0.296-0.454-0.545-0.751-0.749c-0.392-0.28-0.783-0.483-1.174-0.608
		c-0.297-0.093-0.767-0.14-1.409-0.14V87.41h12.372v0.875h-0.844c-0.875,0-1.516,0.188-1.922,0.562s-0.609,0.882-0.609,1.521
		c0,0.796,0.352,2.186,1.055,4.167l6.097,17.273l6.034-17.508c0.688-1.935,1.031-3.277,1.031-4.027c0-0.358-0.113-0.694-0.34-1.006
		c-0.227-0.312-0.512-0.531-0.855-0.656c-0.594-0.218-1.367-0.328-2.32-0.328V87.41H375.462z"/>
	<path d="M384.056,97.066c3.25,0,5.859,1.236,7.828,3.707c1.672,2.111,2.508,4.536,2.508,7.273c0,1.924-0.461,3.872-1.383,5.842
		s-2.191,3.457-3.809,4.458s-3.418,1.501-5.402,1.501c-3.234,0-5.805-1.29-7.711-3.871c-1.609-2.174-2.414-4.614-2.414-7.32
		c0-1.971,0.488-3.93,1.465-5.877s2.262-3.386,3.855-4.317S382.274,97.066,384.056,97.066z M383.331,98.598
		c-0.826,0-1.656,0.247-2.49,0.739c-0.834,0.493-1.508,1.357-2.022,2.593c-0.515,1.236-0.771,2.824-0.771,4.763
		c0,3.129,0.619,5.827,1.858,8.096c1.239,2.269,2.871,3.402,4.897,3.402c1.512,0,2.758-0.625,3.74-1.877
		c0.981-1.251,1.473-3.402,1.473-6.453c0-3.817-0.818-6.82-2.455-9.011C386.456,99.349,385.045,98.598,383.331,98.598z"/>
	<path d="M403.829,97.066v4.828c1.795-3.219,3.637-4.828,5.526-4.828c0.858,0,1.568,0.262,2.13,0.785s0.843,1.129,0.843,1.816
		c0,0.609-0.204,1.125-0.61,1.547s-0.892,0.633-1.454,0.633c-0.548,0-1.161-0.271-1.839-0.813c-0.679-0.542-1.182-0.813-1.509-0.813
		c-0.281,0-0.585,0.157-0.913,0.47c-0.702,0.643-1.427,1.701-2.175,3.173v10.294c0,1.192,0.148,2.094,0.445,2.706
		c0.203,0.424,0.563,0.776,1.078,1.059s1.258,0.423,2.227,0.423v0.844h-11.031v-0.844c1.094,0,1.906-0.172,2.438-0.518
		c0.391-0.251,0.664-0.651,0.82-1.2c0.078-0.267,0.117-1.027,0.117-2.282v-8.313c0-2.507-0.051-4-0.153-4.478
		c-0.102-0.478-0.291-0.826-0.565-1.045c-0.274-0.219-0.616-0.329-1.023-0.329c-0.487,0-1.036,0.117-1.648,0.352l-0.235-0.844
		l6.54-2.625H403.829z"/>
	<path d="M427.376,97.066v7.313h-0.781c-0.592-2.3-1.352-3.864-2.279-4.693c-0.928-0.829-2.108-1.244-3.542-1.244
		c-1.091,0-1.972,0.29-2.642,0.869c-0.67,0.579-1.005,1.221-1.005,1.925c0,0.877,0.248,1.628,0.743,2.254
		c0.48,0.642,1.462,1.323,2.948,2.043l3.424,1.667c3.173,1.549,4.76,3.59,4.76,6.124c0,1.956-0.738,3.532-2.215,4.728
		s-3.129,1.795-4.957,1.795c-1.313,0-2.813-0.234-4.5-0.703c-0.516-0.156-0.938-0.234-1.266-0.234c-0.359,0-0.641,0.198-0.844,0.594
		h-0.781v-7.656h0.781c0.438,2.193,1.273,3.845,2.508,4.957c1.234,1.112,2.617,1.668,4.148,1.668c1.078,0,1.957-0.317,2.637-0.952
		s1.02-1.398,1.02-2.292c0-1.081-0.379-1.99-1.137-2.727s-2.271-1.667-4.538-2.793c-2.268-1.125-3.753-2.142-4.457-3.049
		c-0.704-0.891-1.056-2.017-1.056-3.378c0-1.767,0.605-3.245,1.815-4.433s2.775-1.783,4.696-1.783c0.843,0,1.866,0.183,3.068,0.548
		c0.796,0.239,1.327,0.358,1.593,0.358c0.25,0,0.445-0.056,0.585-0.167s0.305-0.357,0.492-0.739H427.376z"/>
	<path d="M435.806,105.816c-0.016,3.188,0.757,5.688,2.318,7.5c1.561,1.813,3.394,2.719,5.501,2.719c1.404,0,2.625-0.383,3.664-1.15
		s1.908-2.092,2.611-3.975l0.719,0.468c-0.328,2.147-1.281,4.096-2.858,5.845s-3.553,2.624-5.927,2.624
		c-2.577,0-4.784-1.004-6.619-3.012s-2.752-4.707-2.752-8.098c0-3.672,0.941-6.535,2.823-8.59s4.244-3.082,7.087-3.082
		c2.405,0,4.381,0.794,5.927,2.381c1.546,1.587,2.319,3.71,2.319,6.369H435.806z M435.806,104.441h9.938
		c-0.078-1.375-0.242-2.344-0.492-2.906c-0.391-0.875-0.973-1.563-1.746-2.063s-1.582-0.75-2.426-0.75
		c-1.297,0-2.457,0.504-3.48,1.512S435.978,102.645,435.806,104.441z"/>
	<path d="M490.9,87.41l0.344,7.461h-0.891c-0.172-1.313-0.407-2.25-0.704-2.813c-0.485-0.906-1.13-1.574-1.936-2.004
		c-0.805-0.43-1.864-0.645-3.178-0.645h-4.48v24.281c0,1.947,0.211,3.162,0.633,3.644c0.592,0.654,1.504,0.981,2.736,0.981h1.1
		v0.875h-13.469v-0.875h1.125c1.344,0,2.297-0.405,2.859-1.215c0.344-0.498,0.516-1.635,0.516-3.41V89.41h-3.822
		c-1.486,0-2.542,0.109-3.167,0.328c-0.813,0.297-1.509,0.867-2.088,1.711s-0.923,1.984-1.032,3.422h-0.891l0.375-7.461H490.9z"/>
	<path d="M500.251,85.848v15.705c1.732-1.91,3.105-3.135,4.119-3.675c1.016-0.54,2.029-0.811,3.044-0.811
		c1.217,0,2.263,0.337,3.137,1.01s1.521,1.729,1.942,3.169c0.297,1.002,0.445,2.833,0.445,5.495v7.607
		c0,1.357,0.109,2.285,0.328,2.784c0.156,0.375,0.422,0.671,0.797,0.889s1.063,0.327,2.063,0.327v0.844h-10.563v-0.844h0.492
		c1,0,1.695-0.152,2.086-0.456c0.391-0.304,0.664-0.752,0.82-1.345c0.047-0.249,0.07-0.982,0.07-2.199v-7.606
		c0-2.348-0.121-3.889-0.362-4.625s-0.626-1.287-1.155-1.655c-0.529-0.368-1.168-0.552-1.916-0.552c-0.763,0-1.557,0.204-2.382,0.61
		c-0.825,0.407-1.813,1.228-2.966,2.463v11.365c0,1.466,0.082,2.378,0.246,2.737c0.164,0.359,0.469,0.659,0.914,0.901
		s1.215,0.362,2.309,0.362v0.844h-10.656v-0.844c0.953,0,1.703-0.148,2.25-0.444c0.313-0.156,0.563-0.452,0.75-0.889
		s0.281-1.326,0.281-2.667V94.91c0-2.449-0.059-3.955-0.177-4.517c-0.118-0.562-0.298-0.944-0.542-1.147
		c-0.242-0.203-0.568-0.305-0.977-0.305c-0.329,0-0.863,0.125-1.6,0.375l-0.33-0.844l6.449-2.625H500.251z"/>
	<path d="M530.095,116.089c-2.2,1.704-3.582,2.688-4.143,2.954c-0.844,0.391-1.74,0.586-2.692,0.586
		c-1.482,0-2.704-0.508-3.663-1.525c-0.96-1.017-1.439-2.354-1.439-4.012c0-1.048,0.234-1.955,0.702-2.722
		c0.64-1.063,1.751-2.064,3.335-3.003s4.218-2.081,7.9-3.426v-0.843c0-2.138-0.338-3.605-1.014-4.401
		c-0.675-0.796-1.656-1.194-2.945-1.194c-0.978,0-1.754,0.265-2.328,0.795c-0.59,0.53-0.885,1.138-0.885,1.824l0.047,1.356
		c0,0.717-0.186,1.27-0.557,1.66s-0.855,0.584-1.455,0.584c-0.584,0-1.062-0.203-1.432-0.608c-0.371-0.406-0.557-0.96-0.557-1.663
		c0-1.342,0.688-2.575,2.063-3.699s3.305-1.686,5.789-1.686c1.906,0,3.469,0.32,4.688,0.96c0.922,0.484,1.602,1.242,2.039,2.272
		c0.281,0.672,0.422,2.046,0.422,4.124v7.286c0,2.046,0.039,3.3,0.117,3.76c0.078,0.461,0.207,0.769,0.388,0.925
		c0.18,0.156,0.388,0.234,0.622,0.234c0.251,0,0.471-0.055,0.658-0.164c0.328-0.203,0.963-0.773,1.902-1.711v1.313
		c-1.754,2.354-3.43,3.531-5.025,3.531c-0.768,0-1.379-0.265-1.832-0.795C530.345,118.272,530.111,117.368,530.095,116.089z
		 M530.095,114.564v-8.186c-2.355,0.938-3.875,1.603-4.562,1.994c-1.231,0.688-2.112,1.408-2.644,2.158
		c-0.529,0.75-0.795,1.571-0.795,2.462c0,1.126,0.335,2.061,1.006,2.803c0.67,0.743,1.442,1.114,2.316,1.114
		C526.602,116.91,528.162,116.128,530.095,114.564z"/>
	<path d="M545.556,101.608c2.51-3.028,4.902-4.542,7.178-4.542c1.169,0,2.174,0.294,3.016,0.881s1.512,1.554,2.012,2.899
		c0.342,0.939,0.514,2.379,0.514,4.32v9.181c0,1.357,0.109,2.277,0.328,2.76c0.172,0.39,0.449,0.694,0.832,0.913
		s1.09,0.327,2.121,0.327v0.844H550.9v-0.844h0.445c1,0,1.699-0.152,2.098-0.456c0.398-0.304,0.676-0.752,0.832-1.345
		c0.063-0.233,0.094-0.966,0.094-2.199v-8.813c0-1.958-0.252-3.38-0.756-4.265s-1.353-1.328-2.546-1.328
		c-1.845,0-3.682,1.018-5.511,3.052v11.354c0,1.45,0.086,2.347,0.258,2.69c0.22,0.453,0.521,0.784,0.904,0.995
		c0.385,0.21,1.163,0.315,2.338,0.315v0.844H538.4v-0.844h0.468c1.091,0,1.827-0.276,2.21-0.83c0.381-0.554,0.572-1.61,0.572-3.17
		v-8c0-2.578-0.059-4.148-0.177-4.711s-0.298-0.945-0.542-1.148c-0.242-0.203-0.568-0.305-0.977-0.305
		c-0.439,0-0.965,0.117-1.576,0.352l-0.354-0.844l6.516-2.625h1.016V101.608z"/>
</g>
<g>
	<path d="M869.181,98.785v-0.985c1.588-0.892,2.63-1.701,3.125-2.428c0.495-0.727,0.743-1.568,0.743-2.522
		c0-0.438-0.079-0.767-0.235-0.985c-0.174-0.219-0.362-0.329-0.566-0.329c-0.157,0-0.409,0.063-0.755,0.187
		c-0.347,0.125-0.692,0.188-1.038,0.188c-0.66,0-1.227-0.234-1.697-0.702c-0.473-0.468-0.708-1.038-0.708-1.708
		c0-0.749,0.301-1.404,0.903-1.965c0.602-0.562,1.334-0.843,2.193-0.843c1.033,0,1.967,0.445,2.805,1.336
		c0.836,0.891,1.255,2.016,1.255,3.375c0,1.641-0.528,3.141-1.583,4.5S871.087,98.222,869.181,98.785z M880.363,98.785v-0.985
		c1.369-0.704,2.357-1.45,2.965-2.24c0.605-0.79,0.909-1.646,0.909-2.569c0-0.547-0.079-0.931-0.236-1.149
		c-0.157-0.203-0.331-0.305-0.52-0.305c-0.205,0-0.48,0.063-0.827,0.187c-0.362,0.125-0.678,0.188-0.945,0.188
		c-0.646,0-1.209-0.242-1.689-0.726c-0.48-0.483-0.72-1.061-0.72-1.731c0-0.749,0.29-1.396,0.871-1.942s1.294-0.819,2.142-0.819
		c1.067,0,2.024,0.457,2.872,1.371s1.271,2.035,1.271,3.363c0,1.563-0.521,3.02-1.564,4.371S882.338,98.144,880.363,98.785z"/>
</g>
</svg>
