<?xml version="1.0" encoding="utf-8"?>
<!-- Generator: Adobe Illustrator 12.0.0, SVG Export Plug-In . SVG Version: 6.00 Build 51448)  -->
<!DOCTYPE svg PUBLIC "-//W3C//DTD SVG 1.1//EN" "http://www.w3.org/Graphics/SVG/1.1/DTD/svg11.dtd" [
	<!ENTITY ns_svg "http://www.w3.org/2000/svg">
	<!ENTITY ns_xlink "http://www.w3.org/1999/xlink">
]>
<svg  version="1.1" id="Layer_1" xmlns="&ns_svg;" xmlns:xlink="&ns_xlink;" width="387.963" height="174.817"
	 viewBox="0 0 387.963 174.817" overflow="visible" enable-background="new 0 0 387.963 174.817" xml:space="preserve">
<g>
	<g>
		<path d="M311.667,48.93c-0.942-3.983,1.312-8.073-1.574-9.441c-2.828-1.337-6.853,0.319-8.066,1.573
			c0.484,0.558,0.894,1.197,1.181,1.968c1.516-0.452,2.451-1.476,4.721-1.181c0.5,0.483,0.696,1.262,0.59,2.36
			c-3.418-0.271-5.673,0.623-6.688,2.753c-1.303,5.795,5.008,6.599,7.672,4.132c0.188,0.926,1.041,1.188,1.771,1.574
			c0.319-0.927,1.147-1.337,1.574-2.165C312.06,50.102,311.823,49.603,311.667,48.93z M308.52,49.127
			c-2.442,3.476-5.861-3.425,0-2.557V49.127z"/>
	</g>
</g>
<g>
	<g>
		<path d="M292.979,34.177c-1.262,0.073-2.074-0.287-3.147-0.393c-0.131,1.901,0.263,4.328-0.196,5.901
			c-10.361-3.688-9.573,17.17,0.59,11.802c0.524,0.983,2.263,0.442,3.148,0.393C292.578,46.644,293.151,40.03,292.979,34.177z
			 M289.832,48.733c-0.762,0.771-2.246,0.984-3.344,0.394c-1.656-2.721-0.377-9.762,3.344-6.491V48.733z"/>
	</g>
</g>
<g>
	<g>
		<path d="M280.979,46.767c0.943-5.549-3.598-9.54-8.064-7.475c-2.517,1.164-4.279,5.884-2.753,9.638
			c1.368,3.386,7.229,4.918,10.425,1.771c-0.164-0.951-0.647-1.582-1.377-1.967c-1.787,1.59-6.237,1.14-5.507-1.771
			C276.079,46.857,278.915,47.193,280.979,46.767z M276.456,41.849c0.41,0.5,0.484,1.352,0.787,1.966
			c-0.795,0.459-2.426,0.066-3.541,0.197C273.726,42.407,274.464,41.496,276.456,41.849z"/>
	</g>
</g>
<g>
	<g>
		<path d="M332.125,39.489c-0.893-0.369-2.025-0.336-3.147-0.197c-1.18,0.139-2.099,0.262-2.951,0.983
			c-3.205,2.697-2.451,10.458,1.574,11.802c1.754,0.591,3.786,0.197,4.918-0.393C336.346,49.668,336.534,41.3,332.125,39.489z
			 M330.748,49.718c-1.935,0.492-2.853-0.418-3.147-2.558c-0.197-1.41-0.058-3.999,0.393-4.721c1.058-1.697,3.435-0.877,3.737,0.983
			C332.075,45.545,331.796,48.357,330.748,49.718z"/>
	</g>
</g>
<path d="M346.484,40.668c1.762-1.934,6.278-2.22,6.885,0.591c0.582,2.688-0.189,7.786,0,10.621c-0.853,0.092-2.099,0.296-3.147,0
	c-0.238-3.237,0.483-7.441-0.394-10.031c-1.352-0.172-1.876,0.483-2.754,0.787c0,3.082,0,6.163,0,9.245
	c-0.943,0.271-1.894-0.057-3.147,0.197c-0.23-3.318,0.467-7.557-0.394-10.229c-1.426-0.18-2.18,0.312-2.95,0.787
	c0,3.082,0,6.163,0,9.245c-1.058,0.386-1.877-0.082-3.147,0.197c-0.107-4.098,0.287-8.68-0.394-12.195
	c0.975-0.074,1.549-0.549,2.557-0.59c0.549-0.033,0.566,0.483,0.59,0.983C341.937,38.915,345.215,38.758,346.484,40.668z"/>
<path d="M323.076,40.275c-0.188,0.992-0.959,1.402-1.377,2.164c-1.041-0.36-1.418-1.033-2.557-0.787
	c-2.033,0.435-2.771,7.517,0,8.065c0.942,0.188,1.541-0.213,2.753-0.984c0.836,0.344,1.197,1.156,1.573,1.967
	c-1.917,2.27-6.663,1.91-8.261,0c-1.303-1.549-1.59-4.229-1.377-6.097C314.338,40.038,319.256,37.275,323.076,40.275z"/>
<path d="M299.274,52.078c-1.024-0.098-2.443,0.213-3.147-0.197c0-4.13,0-8.261,0-12.392c1.048-0.066,2.099-0.131,2.95-0.394
	C299.537,43.03,299.143,47.816,299.274,52.078z"/>
<path d="M252.85,34.571c1.082,0.459,3.549,0.016,4.329,0.197c1.074,3.45,2.131,6.91,2.754,10.819
	c0.869-3.04,1.991-7.238,2.95-10.819c1.229-0.042,3.107-0.049,4.525,0c0.582,5.181,1.212,11.328,1.573,17.31c-1.181,0-2.36,0-3.54,0
	c-0.271-3.459-0.78-7.54-0.59-10.818c-0.639,0.59-0.673,1.746-0.983,2.753c-0.714,2.288-1.525,5.335-2.361,8.065
	c-1.048,0-2.099,0-3.147,0c-1.09-4.286-1.926-6.754-2.754-11.016c-0.598,3.336-0.475,7.393-0.788,11.016
	c-1.212-0.105-2.852,0.222-3.737-0.197C251.604,46.054,252.047,40.136,252.85,34.571z"/>
<path d="M297.503,32.997c0.623,0.812,1.049,1.836,2.558,1.771c-0.328,0.524-0.837,0.869-1.181,1.377
	c0.181,0.434,0.435,1.311,0.197,1.574c-0.434-0.295-1.057-0.386-1.376-0.787c-0.434,0.288-1.058,0.385-1.377,0.787
	c-0.295-1.229,0.098-2.304-1.181-2.754C296.216,34.595,297.364,34.308,297.503,32.997z"/>
<path d="M356.123,51.292c0.443-1.434,2.025-2.344,2.951-3.738c1.065-1.606,2.844-4.787,3.148-7.082
	c1.27-9.631-11-11.016-20.458-11.016c-14.572,0-28.482,3.263-40.325,5.115c9.991-2.811,24.08-5.59,37.375-6.294
	c9.311-0.492,20.998,0.581,24.786,5.115c3.442,4.13,0.402,10.409-2.361,13.572C359.706,48.717,357.935,50.783,356.123,51.292z"/>
<rect x="0.25" y="134.465" stroke="#000000" stroke-width="0.5" stroke-linecap="round" stroke-linejoin="round" width="108.281" height="3.666"/>
<rect x="145.189" y="134.605" stroke="#000000" stroke-width="0.5" stroke-linecap="round" stroke-linejoin="round" width="240.672" height="3.807"/>
<path d="M38.863,66.989c-0.882-0.824-1.731-2.28-2.996-3.595c-1.831-1.897-4.676-3.437-2.396-6.191
	c-0.5-0.242-0.782-0.683-0.998-1.198c-9.188,0.266-20.971-0.516-30.158,0.399c-0.091,1.281,1.423,0.974,1.198,2.396
	c-0.416,1.048-1.265,1.664-0.999,3.395c1.015,0.949,1.323,2.114,0.999,3.994c0.566,0.425,1.648,2.181,1.598,2.996
	c-0.024,0.292-0.649,0.824-0.599,0.999c0.075,0.283,0.749,0.441,0.998,0.799c1.39,2.031,0.607,4.561,1.199,7.59l25.165,0.599
	c1.124-1.073,1.798-2.596,2.796-3.794c-0.283-1.115-1.298-1.506-0.998-3.196c0.407-0.583,1.29-0.699,2.396-0.599
	C37.324,70.384,38.98,69.568,38.863,66.989"/>
<path d="M3.281,51.28V37.321H32.89c0,0,27.705,0.635,27.282,26.013c0,0,2.961,20.937-13.958,29.185l15.862,33.204H44.098
	l-12.9-29.186c0,0-8.459,2.115-12.055,0v28.551H3.281v-42.72h28.128c0,0,13.324,0,13.324-15.861c0,0,0.211-13.324-12.055-14.804
	L3.281,51.28z"/>
<g>
	<g>
		<path d="M109.448,104.998c0,0,3.595-27.705-21.995-29.608c0,0-29.608-1.269-27.917,28.974c0,0,1.058,15.016,17.342,21.995
			c0,0,12.478,4.019,29.396-5.921l-6.133-8.883c0,0-8.671,9.517-20.514,3.172c0,0-3.278-1.163-6.662-9.834l0.529,0.106H109.448z
			 M85.761,85.329c9.305,0,12.372,10.786,10.151,10.786H73.284C70.64,96.115,76.456,85.329,85.761,85.329z"/>
	</g>
</g>
<path d="M107.967,76.658h13.535l12.689,31.723l13.535-32.146h26.224v3.384c0,0,0.423,3.596,3.807,0.423
	c0,0,23.898-15.016,30.031,8.671v37.222h-12.9V94.846c0,0-3.384-16.073-20.303-2.327V125.3h-13.324V81.522
	c0,0-0.635-3.807-2.115-0.211l-20.937,51.603c0,0-4.229,12.055-15.227,12.266H112.62l2.326-11.208h7.825
	c0,0,6.133-4.019,3.595-10.363L107.967,76.658z"/>
<g>
	<g>
		<path d="M238.525,74.684c-14.561,0-26.365,11.804-26.365,26.366c0,14.561,11.804,26.365,26.365,26.365
			c14.562,0,26.366-11.804,26.366-26.365C264.891,86.488,253.087,74.684,238.525,74.684z M238.103,114.867
			c-7.787,0-14.1-6.313-14.1-14.099c0-7.787,6.313-14.1,14.1-14.1c7.786,0,14.099,6.313,14.099,14.1
			C252.201,108.554,245.889,114.867,238.103,114.867z"/>
	</g>
</g>
<rect x="269.262" y="57.765" width="13.535" height="67.676"/>
<g>
	<g>
		<path d="M325.094,57.765l-0.282,20.585c0.282,4.793-2.82,1.692-2.82,1.692c-10.434-8.742-22.276-2.256-22.276-2.256
			c-18.893,12.689-9.024,36.939-9.024,36.939c12.689,21.995,32.146,7.896,32.146,7.896c3.102-3.948,2.82,3.102,2.82,3.102h12.125
			V57.765H325.094z M325.376,110.496c0,0-7.332,7.613-16.073,3.948c0,0-9.165-2.115-7.473-16.919c0,0,1.974-12.549,14.522-10.152
			c0,0,4.371,0.282,8.318,4.512l0.705,0.987V110.496z"/>
	</g>
</g>
<path d="M379.305,91.25l5.287-9.305c0,0-15.016-10.151-27.705-5.71c0,0-12.901,4.23-12.055,13.747c0,0-1.058,10.574,10.997,14.381
	c0,0,8.248,1.058,13.324,3.172c0,0,10.151,5.287-0.846,9.306c0,0-11.843,1.269-19.668-6.768l-5.922,9.728
	c0,0,5.922,5.71,21.572,7.614c0,0,17.342,0.211,21.572-12.689c0,0,3.595-12.689-10.786-17.976c0,0-13.324-1.903-16.073-3.807
	c0,0-5.287-4.229,2.961-7.613c0,0,9.094-1.48,16.284,4.653L379.305,91.25z"/>
<g>
	<path d="M149.948,163.503v-3.146h11.288v9.879c-1.732,1.38-3.519,2.418-5.36,3.114c-1.842,0.696-3.731,1.044-5.669,1.044
		c-2.616,0-4.994-0.561-7.131-1.683c-2.138-1.122-3.752-2.743-4.842-4.865c-1.091-2.122-1.636-4.493-1.636-7.112
		c0-2.595,0.542-5.017,1.626-7.266c1.084-2.25,2.644-3.919,4.679-5.011c2.035-1.091,4.379-1.637,7.032-1.637
		c1.926,0,3.667,0.313,5.223,0.938c1.556,0.625,2.777,1.496,3.661,2.612c0.884,1.117,1.557,2.573,2.017,4.369l-3.189,0.872
		c-0.399-1.359-0.896-2.428-1.488-3.206c-0.593-0.778-1.44-1.401-2.54-1.869c-1.101-0.468-2.323-0.702-3.665-0.702
		c-1.609,0-3,0.246-4.173,0.737s-2.12,1.138-2.84,1.938c-0.719,0.801-1.279,1.681-1.678,2.639c-0.677,1.65-1.016,3.44-1.016,5.369
		c0,2.378,0.408,4.369,1.225,5.971c0.816,1.602,2.005,2.791,3.565,3.567c1.561,0.777,3.217,1.165,4.971,1.165
		c1.524,0,3.012-0.293,4.464-0.881c1.451-0.587,2.552-1.214,3.302-1.88v-4.958H149.948z"/>
</g>
<g>
	<path d="M171.096,161.385c0-4.422,1.188-7.885,3.563-10.387c2.375-2.502,5.441-3.753,9.198-3.753c2.46,0,4.678,0.588,6.653,1.764
		c1.975,1.175,3.481,2.814,4.517,4.916c1.036,2.103,1.555,4.486,1.555,7.152c0,2.702-0.546,5.12-1.636,7.252
		c-1.09,2.132-2.636,3.747-4.635,4.843c-2,1.097-4.156,1.645-6.471,1.645c-2.509,0-4.75-0.605-6.726-1.817s-3.472-2.866-4.49-4.962
		C171.605,165.942,171.096,163.724,171.096,161.385z M174.744,161.444c0,3.211,0.862,5.74,2.587,7.588
		c1.724,1.848,3.887,2.771,6.489,2.771c2.65,0,4.831-0.933,6.543-2.799c1.712-1.866,2.568-4.513,2.568-7.942
		c0-2.168-0.366-4.062-1.098-5.68s-1.803-2.872-3.213-3.762s-2.992-1.336-4.747-1.336c-2.493,0-4.638,0.858-6.435,2.572
		C175.643,154.571,174.744,157.434,174.744,161.444z"/>
</g>
<g>
	<path d="M213.602,174.368l-10.291-26.647h3.817l6.916,19.363c0.557,1.551,1.023,3.006,1.398,4.363
		c0.412-1.454,0.89-2.909,1.436-4.363l7.196-19.363h3.6l-10.427,26.647H213.602z"/>
</g>
<g>
	<path d="M237.371,174.368v-26.647h19.271v3.146h-15.755v8.142h14.751v3.146h-14.751v9.067h16.364v3.146H237.371z"/>
</g>
<g>
	<path d="M264.864,174.368v-26.647h11.812c2.377,0,4.184,0.239,5.421,0.717c1.237,0.479,2.225,1.323,2.965,2.534
		s1.11,2.549,1.11,4.014c0,1.889-0.612,3.482-1.837,4.777c-1.225,1.296-3.117,2.119-5.676,2.47c0.933,0.449,1.642,0.892,2.126,1.329
		c1.03,0.947,2.003,2.129,2.92,3.547l4.616,7.259h-4.406l-3.529-5.549c-1.031-1.601-1.88-2.825-2.547-3.675
		c-0.667-0.849-1.265-1.443-1.792-1.783c-0.528-0.339-1.064-0.576-1.61-0.71c-0.4-0.084-1.055-0.127-1.965-0.127h-4.093v11.843
		H264.864z M268.38,159.458h7.586c1.612,0,2.873-0.166,3.78-0.499c0.907-0.333,1.597-0.865,2.069-1.597s0.708-1.528,0.708-2.387
		c0-1.258-0.457-2.292-1.372-3.104c-0.914-0.811-2.357-1.216-4.331-1.216h-8.441V159.458z"/>
</g>
<g>
	<path d="M296.059,174.368v-26.647h3.62l13.986,20.919v-20.919h3.384v26.647h-3.62l-13.986-20.919v20.919H296.059z"/>
</g>
<g>
	<path d="M329.289,160.962c0-4.422,1.188-7.885,3.563-10.387s5.441-3.753,9.198-3.753c2.46,0,4.677,0.588,6.653,1.763
		c1.975,1.176,3.481,2.814,4.517,4.917c1.036,2.103,1.555,4.486,1.555,7.152c0,2.703-0.546,5.12-1.636,7.253
		c-1.091,2.132-2.636,3.747-4.635,4.843c-2,1.097-4.156,1.645-6.471,1.645c-2.509,0-4.75-0.605-6.726-1.817s-3.472-2.866-4.49-4.962
		C329.797,165.519,329.289,163.301,329.289,160.962z M332.937,161.021c0,3.211,0.862,5.74,2.587,7.588
		c1.724,1.848,3.887,2.772,6.489,2.772c2.65,0,4.832-0.933,6.544-2.799c1.712-1.866,2.568-4.513,2.568-7.942
		c0-2.169-0.366-4.062-1.098-5.68s-1.803-2.872-3.213-3.762s-2.992-1.336-4.747-1.336c-2.493,0-4.638,0.857-6.435,2.572
		C333.835,154.148,332.937,157.011,332.937,161.021z"/>
</g>
<g>
	<path d="M365.03,174.186v-26.04h11.547c2.324,0,4.091,0.234,5.3,0.702c1.209,0.468,2.175,1.294,2.899,2.479
		c0.723,1.185,1.085,2.493,1.085,3.927c0,1.848-0.599,3.405-1.796,4.673c-1.198,1.267-3.047,2.073-5.549,2.416
		c0.912,0.438,1.605,0.871,2.079,1.297c1.007,0.924,1.959,2.078,2.855,3.461l4.513,7.085h-4.308l-3.451-5.416
		c-1.008-1.563-1.838-2.758-2.49-3.587c-0.652-0.829-1.236-1.408-1.752-1.737s-1.041-0.56-1.574-0.689
		c-0.392-0.082-1.032-0.124-1.921-0.124h-4.002v11.553H365.03z M368.466,159.646h7.417c1.577,0,2.812-0.163,3.705-0.488
		c0.892-0.326,1.57-0.847,2.035-1.563c0.464-0.717,0.696-1.496,0.696-2.337c0-1.231-0.449-2.245-1.347-3.038
		c-0.897-0.794-2.315-1.191-4.253-1.191h-8.253V159.646z"/>
</g>
<g>
	<path d="M75.604,13.838l10.344,10.238c1.692,1.71,3.136,2.872,4.333,3.484c1.196,0.613,2.393,0.96,3.589,1.043v0.767H80.534v-0.767
		c0.799,0,1.374-0.134,1.725-0.403c0.351-0.268,0.527-0.568,0.527-0.898c0-0.33-0.066-0.626-0.196-0.888
		c-0.131-0.262-0.562-0.75-1.291-1.466l-9.661-9.563V24.4c0,1.422,0.089,2.36,0.269,2.816c0.137,0.345,0.426,0.642,0.867,0.891
		c0.592,0.331,1.219,0.497,1.879,0.497h0.95v0.767H63.653v-0.767h0.994c1.16,0,2.002-0.338,2.527-1.014
		c0.331-0.442,0.497-1.504,0.497-3.189V6.345c0-1.422-0.09-2.367-0.27-2.837c-0.138-0.332-0.421-0.621-0.849-0.87
		c-0.608-0.331-1.243-0.497-1.906-0.497h-0.994V1.375h11.949v0.767h-0.95c-0.647,0-1.274,0.159-1.879,0.477
		c-0.427,0.221-0.723,0.552-0.888,0.994c-0.165,0.442-0.248,1.353-0.248,2.733v8.546c0.275-0.261,1.218-1.135,2.828-2.62
		c4.087-3.741,6.558-6.237,7.412-7.488c0.372-0.55,0.558-1.032,0.558-1.444c0-0.316-0.145-0.595-0.434-0.835
		c-0.29-0.241-0.778-0.361-1.467-0.361h-0.64V1.375h10.292v0.767c-0.606,0.014-1.157,0.097-1.652,0.249
		c-0.496,0.151-1.102,0.444-1.817,0.879C86,3.703,85.119,4.402,84.072,5.367c-0.303,0.275-1.701,1.683-4.193,4.225L75.604,13.838z"
		/>
	<path d="M101.363,9.887v15.2c0,1.188,0.086,1.979,0.259,2.373c0.172,0.394,0.428,0.687,0.767,0.88
		c0.338,0.193,0.957,0.29,1.855,0.29v0.74h-9.2v-0.74c0.919,0,1.537-0.089,1.853-0.269c0.315-0.179,0.566-0.477,0.751-0.891
		c0.185-0.415,0.278-1.208,0.278-2.383v-7.296c0-2.056-0.062-3.388-0.186-3.995c-0.096-0.441-0.248-0.748-0.453-0.92
		c-0.206-0.172-0.488-0.259-0.845-0.259c-0.384,0-0.851,0.104-1.4,0.31l-0.289-0.74l5.7-2.3H101.363z M99.642,0
		c0.58,0,1.073,0.204,1.48,0.611s0.611,0.901,0.611,1.48c0,0.58-0.204,1.077-0.611,1.491c-0.407,0.415-0.901,0.621-1.48,0.621
		c-0.58,0-1.077-0.207-1.491-0.621c-0.414-0.414-0.621-0.911-0.621-1.491c0-0.58,0.204-1.073,0.611-1.48S99.048,0,99.642,0z"/>
	<path d="M112.242,13.945c1.374-1.387,2.185-2.185,2.433-2.393c0.618-0.527,1.285-0.936,1.999-1.228s1.422-0.437,2.123-0.437
		c1.182,0,2.199,0.347,3.051,1.041s1.422,1.7,1.711,3.017c1.417-1.665,2.614-2.757,3.591-3.277c0.977-0.52,1.981-0.78,3.013-0.78
		c1.004,0,1.895,0.258,2.672,0.774c0.777,0.516,1.393,1.36,1.847,2.53c0.302,0.799,0.454,2.052,0.454,3.759v8.137
		c0,1.188,0.089,2.003,0.269,2.445c0.138,0.304,0.393,0.563,0.766,0.777s0.979,0.321,1.821,0.321v0.74h-9.358v-0.74h0.394
		c0.815,0,1.45-0.159,1.906-0.476c0.318-0.221,0.546-0.573,0.684-1.057c0.056-0.234,0.083-0.905,0.083-2.01v-8.116
		c0-1.538-0.185-2.622-0.556-3.254c-0.536-0.879-1.395-1.318-2.576-1.318c-0.729,0-1.46,0.182-2.195,0.546
		c-0.735,0.364-1.625,1.042-2.668,2.032l-0.041,0.227l0.053,0.886v8.999c0,1.298,0.072,2.106,0.216,2.424
		c0.144,0.317,0.415,0.583,0.813,0.797s1.077,0.321,2.038,0.321v0.74h-9.57v-0.74c1.042,0,1.76-0.124,2.151-0.373
		c0.391-0.249,0.662-0.622,0.813-1.119c0.068-0.235,0.103-0.918,0.103-2.051v-8.114c0-1.538-0.227-2.649-0.678-3.336
		c-0.604-0.896-1.446-1.345-2.528-1.345c-0.74,0-1.473,0.203-2.199,0.608c-1.138,0.615-2.015,1.307-2.631,2.076v10.111
		c0,1.244,0.085,2.052,0.257,2.424c0.171,0.373,0.425,0.652,0.761,0.839s1.019,0.279,2.048,0.279v0.74h-9.385v-0.74
		c0.871,0,1.479-0.093,1.824-0.279s0.608-0.483,0.788-0.891s0.27-1.198,0.27-2.373v-7.243c0-2.08-0.062-3.423-0.186-4.029
		c-0.096-0.454-0.248-0.768-0.453-0.94c-0.206-0.172-0.488-0.258-0.845-0.258c-0.385,0-0.845,0.104-1.38,0.31l-0.309-0.74l5.718-2.3
		h0.891V13.945z"/>
</g>
<g>
	<path d="M59.014,36.668v0.407c-0.586,0.304-1.006,0.622-1.259,0.953c-0.253,0.331-0.38,0.691-0.38,1.082
		c0,0.231,0.033,0.391,0.1,0.477c0.06,0.093,0.133,0.139,0.22,0.139c0.086,0,0.203-0.024,0.35-0.074s0.28-0.075,0.4-0.075
		c0.273,0,0.511,0.101,0.714,0.303s0.305,0.449,0.305,0.741c0,0.318-0.123,0.592-0.368,0.82c-0.246,0.229-0.551,0.343-0.916,0.343
		c-0.445,0-0.847-0.192-1.205-0.576s-0.538-0.857-0.538-1.42c0-0.662,0.221-1.28,0.662-1.853
		C57.54,37.362,58.178,36.94,59.014,36.668z M63.745,36.695v0.377c-0.668,0.384-1.108,0.729-1.32,1.033s-0.318,0.662-0.318,1.073
		c0,0.186,0.037,0.325,0.109,0.417s0.149,0.139,0.229,0.139c0.073,0,0.182-0.026,0.328-0.079c0.146-0.053,0.291-0.079,0.437-0.079
		c0.271,0,0.508,0.098,0.71,0.292c0.202,0.195,0.303,0.434,0.303,0.718c0,0.323-0.127,0.604-0.382,0.841s-0.567,0.356-0.938,0.356
		c-0.437,0-0.83-0.188-1.181-0.565s-0.526-0.847-0.526-1.409c0-0.694,0.222-1.328,0.665-1.9
		C62.303,37.338,62.932,36.933,63.745,36.695z"/>
	<path d="M76.419,46.688l0.33,0.069l-1.15,3.658H65.197v-0.37h0.505c0.567,0,0.973-0.184,1.217-0.552
		c0.138-0.21,0.208-0.696,0.208-1.458v-8.684c0-0.838-0.092-1.363-0.277-1.574c-0.257-0.291-0.64-0.436-1.148-0.436h-0.505v-0.37
		h6.08v0.37c-0.712-0.006-1.212,0.06-1.5,0.198s-0.483,0.313-0.589,0.524c-0.106,0.211-0.159,0.715-0.159,1.512v8.443
		c0,0.548,0.053,0.925,0.159,1.13c0.079,0.139,0.201,0.241,0.367,0.307c0.165,0.066,0.68,0.099,1.545,0.099h0.98
		c1.03,0,1.753-0.076,2.169-0.228c0.416-0.152,0.796-0.422,1.139-0.809S76.075,47.521,76.419,46.688z"/>
	<path d="M80.969,41.057v7.31c0,0.567,0.041,0.945,0.124,1.133c0.082,0.188,0.204,0.328,0.366,0.42s0.457,0.139,0.885,0.139v0.357
		h-4.415v-0.357c0.443,0,0.74-0.043,0.893-0.129c0.152-0.085,0.272-0.228,0.362-0.425s0.134-0.577,0.134-1.138V44.85
		c0-0.983-0.03-1.62-0.09-1.911c-0.046-0.211-0.12-0.358-0.219-0.44c-0.1-0.083-0.236-0.124-0.408-0.124
		c-0.186,0-0.412,0.05-0.677,0.149l-0.139-0.357l2.748-1.11H80.969z M80.154,36.312c0.277,0,0.513,0.097,0.708,0.292
		c0.194,0.194,0.292,0.43,0.292,0.708c0,0.277-0.098,0.515-0.292,0.713c-0.195,0.198-0.431,0.296-0.708,0.296
		c-0.277,0-0.515-0.099-0.712-0.296c-0.198-0.198-0.297-0.436-0.297-0.713c0-0.277,0.097-0.513,0.292-0.708
		C79.631,36.409,79.871,36.312,80.154,36.312z"/>
	<path d="M86.121,38.333v2.987h2.122v0.701h-2.122v5.891c0,0.589,0.084,0.985,0.252,1.19s0.384,0.307,0.648,0.307
		c0.218,0,0.429-0.068,0.633-0.204c0.204-0.136,0.363-0.336,0.475-0.602h0.383c-0.232,0.649-0.56,1.137-0.984,1.465
		s-0.861,0.491-1.312,0.491c-0.305,0-0.603-0.084-0.895-0.252c-0.292-0.168-0.507-0.41-0.646-0.724s-0.208-0.798-0.208-1.453v-6.109
		h-1.441v-0.33c0.365-0.146,0.738-0.393,1.12-0.741c0.382-0.348,0.723-0.761,1.025-1.237c0.154-0.251,0.369-0.711,0.644-1.379
		H86.121z"/>
	<path d="M91.762,38.333v2.987h2.121v0.701h-2.121v5.891c0,0.589,0.084,0.985,0.252,1.19c0.168,0.205,0.385,0.307,0.648,0.307
		c0.218,0,0.429-0.068,0.633-0.204c0.205-0.136,0.363-0.336,0.475-0.602h0.383c-0.232,0.649-0.56,1.137-0.984,1.465
		c-0.424,0.328-0.861,0.491-1.312,0.491c-0.305,0-0.603-0.084-0.895-0.252c-0.292-0.168-0.507-0.41-0.646-0.724
		s-0.208-0.798-0.208-1.453v-6.109h-1.441v-0.33c0.365-0.146,0.738-0.393,1.12-0.741c0.381-0.348,0.723-0.761,1.025-1.237
		c0.154-0.251,0.369-0.711,0.644-1.379H91.762z"/>
	<path d="M96.279,44.758c-0.007,1.348,0.32,2.405,0.98,3.172c0.66,0.767,1.436,1.15,2.327,1.15c0.594,0,1.111-0.163,1.55-0.487
		s0.807-0.885,1.104-1.681l0.304,0.198c-0.139,0.908-0.542,1.732-1.209,2.472c-0.667,0.74-1.502,1.11-2.507,1.11
		c-1.09,0-2.023-0.424-2.799-1.274c-0.776-0.849-1.165-1.991-1.165-3.425c0-1.553,0.398-2.764,1.194-3.633
		c0.796-0.869,1.795-1.304,2.998-1.304c1.017,0,1.853,0.336,2.507,1.007s0.981,1.569,0.981,2.694H96.279z M96.279,44.176h4.203
		c-0.033-0.582-0.103-0.991-0.208-1.229c-0.165-0.37-0.412-0.661-0.739-0.873s-0.669-0.317-1.026-0.317
		c-0.548,0-1.039,0.213-1.472,0.639S96.352,43.416,96.279,44.176z"/>
	<path d="M106.427,41.057v2.042c0.759-1.361,1.539-2.042,2.337-2.042c0.363,0,0.664,0.111,0.901,0.332s0.356,0.478,0.356,0.768
		c0,0.258-0.086,0.476-0.258,0.654c-0.172,0.179-0.377,0.268-0.615,0.268c-0.232,0-0.491-0.115-0.778-0.344s-0.5-0.344-0.638-0.344
		c-0.119,0-0.248,0.066-0.386,0.199c-0.297,0.272-0.604,0.72-0.92,1.342v4.354c0,0.504,0.063,0.886,0.188,1.145
		c0.086,0.18,0.238,0.329,0.456,0.448c0.218,0.119,0.532,0.179,0.942,0.179v0.357h-4.666v-0.357c0.462,0,0.806-0.073,1.031-0.219
		c0.166-0.106,0.281-0.275,0.347-0.507c0.033-0.113,0.049-0.435,0.049-0.965V44.85c0-1.061-0.021-1.691-0.064-1.894
		c-0.043-0.202-0.123-0.349-0.239-0.442s-0.26-0.139-0.433-0.139c-0.206,0-0.438,0.05-0.697,0.149l-0.1-0.357l2.766-1.11H106.427z"
		/>
	<path d="M115.66,49.103c-0.931,0.72-1.515,1.137-1.752,1.249c-0.356,0.165-0.736,0.248-1.139,0.248
		c-0.627,0-1.144-0.215-1.549-0.645c-0.406-0.43-0.609-0.996-0.609-1.697c0-0.443,0.099-0.827,0.297-1.151
		c0.271-0.45,0.741-0.874,1.411-1.271c0.67-0.397,1.784-0.88,3.342-1.449v-0.356c0-0.904-0.143-1.525-0.429-1.862
		c-0.286-0.336-0.701-0.505-1.246-0.505c-0.414,0-0.742,0.112-0.985,0.336c-0.25,0.224-0.375,0.481-0.375,0.771l0.02,0.574
		c0,0.303-0.079,0.537-0.235,0.702c-0.157,0.165-0.362,0.247-0.616,0.247c-0.247,0-0.449-0.085-0.606-0.257
		c-0.157-0.171-0.235-0.406-0.235-0.703c0-0.568,0.291-1.089,0.872-1.565c0.582-0.475,1.398-0.713,2.449-0.713
		c0.806,0,1.467,0.135,1.983,0.406c0.39,0.205,0.677,0.525,0.862,0.961c0.119,0.284,0.178,0.866,0.178,1.744v3.082
		c0,0.866,0.017,1.396,0.05,1.59c0.033,0.195,0.088,0.325,0.164,0.392c0.076,0.066,0.164,0.099,0.263,0.099
		c0.106,0,0.199-0.023,0.278-0.069c0.139-0.086,0.407-0.327,0.805-0.724v0.555c-0.742,0.996-1.451,1.494-2.126,1.494
		c-0.325,0-0.583-0.112-0.775-0.336C115.766,50.026,115.666,49.644,115.66,49.103z M115.66,48.458v-3.462
		c-0.996,0.397-1.639,0.678-1.93,0.843c-0.521,0.291-0.894,0.595-1.118,0.913c-0.225,0.317-0.336,0.665-0.336,1.042
		c0,0.477,0.142,0.872,0.425,1.186c0.284,0.314,0.61,0.471,0.979,0.471C114.182,49.45,114.842,49.119,115.66,48.458z"/>
	<path d="M122.675,36.312v12.055c0,0.567,0.042,0.943,0.124,1.128s0.21,0.325,0.382,0.42s0.492,0.144,0.961,0.144v0.357h-4.468
		v-0.357c0.419,0,0.706-0.043,0.859-0.129c0.153-0.085,0.273-0.228,0.36-0.425c0.086-0.198,0.13-0.577,0.13-1.138v-8.261
		c0-1.019-0.023-1.645-0.07-1.878c-0.046-0.233-0.121-0.393-0.223-0.479c-0.103-0.085-0.233-0.128-0.392-0.128
		c-0.172,0-0.39,0.053-0.654,0.158l-0.168-0.357l2.712-1.11H122.675z"/>
	<path d="M128.316,36.312v12.055c0,0.567,0.041,0.943,0.124,1.128c0.083,0.185,0.21,0.325,0.382,0.42s0.492,0.144,0.961,0.144v0.357
		h-4.467v-0.357c0.419,0,0.706-0.043,0.858-0.129c0.153-0.085,0.273-0.228,0.36-0.425s0.13-0.577,0.13-1.138v-8.261
		c0-1.019-0.023-1.645-0.069-1.878c-0.046-0.233-0.121-0.393-0.223-0.479c-0.103-0.085-0.233-0.128-0.392-0.128
		c-0.172,0-0.39,0.053-0.654,0.158l-0.168-0.357l2.712-1.11H128.316z"/>
	<path d="M130.297,41.321h4.234v0.357h-0.208c-0.297,0-0.521,0.065-0.669,0.195c-0.149,0.13-0.223,0.292-0.223,0.484
		c0,0.26,0.109,0.619,0.327,1.079l2.218,4.603l2.024-5.04c0.113-0.273,0.169-0.543,0.169-0.811c0-0.12-0.023-0.21-0.07-0.27
		c-0.053-0.073-0.135-0.132-0.248-0.175c-0.112-0.043-0.311-0.065-0.595-0.065v-0.357h2.946v0.357
		c-0.245,0.027-0.433,0.08-0.565,0.16c-0.132,0.08-0.277,0.229-0.436,0.449c-0.06,0.093-0.172,0.349-0.337,0.769l-3.689,9.077
		c-0.357,0.88-0.826,1.545-1.405,1.996s-1.137,0.675-1.673,0.675c-0.391,0-0.712-0.112-0.963-0.337
		c-0.251-0.226-0.377-0.483-0.377-0.775c0-0.278,0.091-0.501,0.273-0.67c0.183-0.169,0.432-0.253,0.75-0.253
		c0.218,0,0.517,0.073,0.894,0.22c0.265,0.1,0.431,0.15,0.497,0.15c0.199,0,0.415-0.103,0.65-0.308
		c0.235-0.206,0.471-0.604,0.709-1.194l0.64-1.591l-3.258-6.85c-0.099-0.206-0.258-0.462-0.476-0.769
		c-0.166-0.233-0.301-0.389-0.407-0.469c-0.152-0.106-0.396-0.199-0.733-0.279V41.321z"/>
	<path d="M164.031,36.972v0.37c-0.351,0-0.635,0.063-0.853,0.188c-0.218,0.125-0.426,0.36-0.625,0.703
		c-0.132,0.231-0.34,0.783-0.625,1.655l-3.733,10.83h-0.402l-3.065-8.601l-3.034,8.601h-0.36l-3.991-11.162
		c-0.297-0.831-0.486-1.322-0.565-1.473c-0.132-0.25-0.313-0.437-0.541-0.559c-0.228-0.122-0.537-0.183-0.927-0.183v-0.37h4.969
		v0.37h-0.238c-0.35,0-0.618,0.079-0.803,0.236c-0.185,0.157-0.277,0.347-0.277,0.57c0,0.229,0.145,0.757,0.436,1.583l2.65,7.536
		l2.229-6.414l-0.395-1.107l-0.318-0.9c-0.139-0.33-0.295-0.62-0.467-0.871c-0.086-0.125-0.192-0.231-0.318-0.317
		c-0.166-0.118-0.331-0.204-0.497-0.257c-0.126-0.04-0.324-0.06-0.596-0.06v-0.37h5.233v0.37h-0.357
		c-0.37,0-0.641,0.079-0.813,0.238c-0.172,0.158-0.258,0.373-0.258,0.644c0,0.337,0.149,0.924,0.446,1.763l2.579,7.306l2.552-7.405
		c0.291-0.818,0.437-1.386,0.437-1.703c0-0.152-0.048-0.293-0.144-0.426c-0.096-0.132-0.216-0.225-0.362-0.277
		c-0.251-0.092-0.578-0.139-0.981-0.139v-0.37H164.031z"/>
	<path d="M167.666,41.057c1.375,0,2.479,0.522,3.311,1.568c0.707,0.893,1.061,1.918,1.061,3.076c0,0.814-0.195,1.638-0.585,2.471
		c-0.39,0.833-0.927,1.462-1.611,1.885c-0.684,0.424-1.445,0.635-2.285,0.635c-1.368,0-2.456-0.545-3.262-1.637
		c-0.681-0.919-1.021-1.952-1.021-3.096c0-0.834,0.207-1.663,0.62-2.486c0.413-0.824,0.957-1.433,1.631-1.826
		C166.198,41.253,166.912,41.057,167.666,41.057z M167.359,41.704c-0.349,0-0.7,0.104-1.053,0.313
		c-0.353,0.208-0.638,0.574-0.855,1.097c-0.218,0.523-0.326,1.194-0.326,2.015c0,1.324,0.262,2.465,0.786,3.424
		c0.524,0.959,1.214,1.439,2.071,1.439c0.64,0,1.167-0.264,1.582-0.794c0.415-0.529,0.623-1.439,0.623-2.729
		c0-1.614-0.346-2.885-1.039-3.811C168.681,42.022,168.084,41.704,167.359,41.704z"/>
	<path d="M176.029,41.057v2.042c0.759-1.361,1.539-2.042,2.337-2.042c0.363,0,0.664,0.111,0.901,0.332
		c0.238,0.221,0.357,0.478,0.357,0.768c0,0.258-0.086,0.476-0.258,0.654c-0.172,0.179-0.377,0.268-0.615,0.268
		c-0.232,0-0.491-0.115-0.778-0.344c-0.287-0.229-0.5-0.344-0.638-0.344c-0.119,0-0.248,0.066-0.386,0.199
		c-0.297,0.272-0.604,0.72-0.92,1.342v4.354c0,0.504,0.063,0.886,0.188,1.145c0.085,0.18,0.238,0.329,0.456,0.448
		c0.218,0.119,0.532,0.179,0.942,0.179v0.357h-4.666v-0.357c0.463,0,0.807-0.073,1.031-0.219c0.165-0.106,0.281-0.275,0.347-0.507
		c0.033-0.113,0.049-0.435,0.049-0.965V44.85c0-1.061-0.021-1.691-0.065-1.894c-0.043-0.202-0.123-0.349-0.239-0.442
		s-0.261-0.139-0.433-0.139c-0.206,0-0.438,0.05-0.697,0.149l-0.1-0.357l2.766-1.11H176.029z"/>
	<path d="M185.989,41.057v3.093h-0.33c-0.251-0.973-0.572-1.634-0.964-1.985c-0.393-0.351-0.892-0.526-1.498-0.526
		c-0.461,0-0.834,0.123-1.118,0.368c-0.284,0.245-0.425,0.517-0.425,0.814c0,0.371,0.105,0.688,0.314,0.954
		c0.203,0.271,0.619,0.56,1.247,0.864l1.448,0.706c1.342,0.655,2.014,1.518,2.014,2.59c0,0.827-0.313,1.494-0.937,2
		c-0.625,0.506-1.323,0.759-2.097,0.759c-0.555,0-1.189-0.099-1.903-0.297c-0.218-0.066-0.396-0.099-0.535-0.099
		c-0.152,0-0.271,0.084-0.357,0.251h-0.331v-3.238h0.331c0.185,0.928,0.539,1.626,1.061,2.097c0.522,0.471,1.107,0.706,1.755,0.706
		c0.456,0,0.828-0.134,1.115-0.402s0.431-0.592,0.431-0.97c0-0.457-0.16-0.842-0.481-1.153c-0.32-0.312-0.96-0.705-1.919-1.182
		c-0.959-0.476-1.587-0.906-1.885-1.29c-0.298-0.376-0.446-0.853-0.446-1.429c0-0.747,0.256-1.372,0.768-1.875
		c0.512-0.502,1.174-0.754,1.986-0.754c0.357,0,0.79,0.078,1.298,0.232c0.337,0.101,0.562,0.151,0.674,0.151
		c0.106,0,0.188-0.023,0.248-0.071c0.06-0.047,0.129-0.151,0.208-0.313H185.989z"/>
	<path d="M189.555,44.758c-0.007,1.348,0.32,2.405,0.98,3.172c0.66,0.767,1.436,1.15,2.327,1.15c0.594,0,1.11-0.163,1.55-0.487
		c0.439-0.324,0.807-0.885,1.104-1.681l0.304,0.198c-0.139,0.908-0.542,1.732-1.209,2.472c-0.667,0.74-1.503,1.11-2.507,1.11
		c-1.09,0-2.023-0.424-2.8-1.274c-0.776-0.849-1.164-1.991-1.164-3.425c0-1.553,0.398-2.764,1.194-3.633s1.795-1.304,2.998-1.304
		c1.018,0,1.853,0.336,2.507,1.007c0.654,0.671,0.981,1.569,0.981,2.694H189.555z M189.555,44.176h4.203
		c-0.033-0.582-0.103-0.991-0.208-1.229c-0.166-0.37-0.412-0.661-0.739-0.873s-0.669-0.317-1.026-0.317
		c-0.549,0-1.04,0.213-1.472,0.639C189.88,42.823,189.627,43.416,189.555,44.176z"/>
	<path d="M212.858,36.972l0.146,3.156h-0.377c-0.073-0.555-0.172-0.952-0.298-1.189c-0.205-0.383-0.478-0.666-0.818-0.848
		c-0.34-0.182-0.789-0.272-1.344-0.272h-1.895v10.27c0,0.824,0.089,1.337,0.268,1.542c0.25,0.277,0.636,0.415,1.157,0.415h0.465
		v0.37h-5.697v-0.37h0.476c0.568,0,0.972-0.171,1.209-0.514c0.146-0.21,0.218-0.691,0.218-1.442v-10.27h-1.617
		c-0.629,0-1.075,0.046-1.34,0.139c-0.344,0.125-0.638,0.367-0.883,0.724c-0.245,0.357-0.39,0.839-0.437,1.447h-0.376l0.159-3.156
		H212.858z"/>
	<path d="M216.813,36.312v6.643c0.732-0.808,1.313-1.326,1.742-1.555c0.43-0.229,0.858-0.343,1.288-0.343
		c0.515,0,0.957,0.143,1.327,0.427c0.37,0.284,0.644,0.731,0.822,1.34c0.125,0.424,0.188,1.199,0.188,2.324v3.218
		c0,0.574,0.046,0.966,0.139,1.177c0.066,0.159,0.178,0.284,0.337,0.376s0.449,0.139,0.872,0.139v0.357h-4.467v-0.357h0.208
		c0.423,0,0.717-0.064,0.882-0.193s0.281-0.318,0.347-0.569c0.02-0.105,0.03-0.415,0.03-0.93v-3.217
		c0-0.993-0.051-1.645-0.153-1.956s-0.265-0.544-0.489-0.7c-0.224-0.155-0.494-0.233-0.811-0.233c-0.323,0-0.658,0.086-1.007,0.258
		s-0.767,0.519-1.254,1.042v4.807c0,0.62,0.035,1.006,0.104,1.158c0.069,0.151,0.198,0.279,0.387,0.381s0.514,0.153,0.977,0.153
		v0.357h-4.507v-0.357c0.403,0,0.72-0.063,0.952-0.188c0.132-0.066,0.238-0.191,0.317-0.376c0.08-0.185,0.119-0.561,0.119-1.128
		v-8.222c0-1.036-0.025-1.673-0.075-1.911c-0.05-0.237-0.126-0.399-0.229-0.485c-0.102-0.085-0.24-0.128-0.413-0.128
		c-0.139,0-0.365,0.053-0.676,0.158l-0.14-0.357l2.728-1.11H216.813z"/>
	<path d="M229.437,49.103c-0.931,0.72-1.515,1.137-1.752,1.249c-0.356,0.165-0.736,0.248-1.139,0.248
		c-0.627,0-1.144-0.215-1.549-0.645c-0.406-0.43-0.609-0.996-0.609-1.697c0-0.443,0.099-0.827,0.297-1.151
		c0.271-0.45,0.741-0.874,1.411-1.271s1.784-0.88,3.342-1.449v-0.356c0-0.904-0.143-1.525-0.429-1.862
		c-0.286-0.336-0.701-0.505-1.246-0.505c-0.413,0-0.742,0.112-0.984,0.336c-0.25,0.224-0.375,0.481-0.375,0.771l0.02,0.574
		c0,0.303-0.079,0.537-0.235,0.702c-0.157,0.165-0.362,0.247-0.616,0.247c-0.247,0-0.449-0.085-0.605-0.257
		c-0.157-0.171-0.235-0.406-0.235-0.703c0-0.568,0.291-1.089,0.873-1.565c0.582-0.475,1.397-0.713,2.448-0.713
		c0.807,0,1.467,0.135,1.983,0.406c0.39,0.205,0.677,0.525,0.862,0.961c0.119,0.284,0.179,0.866,0.179,1.744v3.082
		c0,0.866,0.017,1.396,0.049,1.59c0.033,0.195,0.087,0.325,0.164,0.392c0.076,0.066,0.164,0.099,0.263,0.099
		c0.106,0,0.199-0.023,0.278-0.069c0.139-0.086,0.407-0.327,0.805-0.724v0.555c-0.742,0.996-1.451,1.494-2.125,1.494
		c-0.325,0-0.583-0.112-0.775-0.336C229.542,50.026,229.443,49.644,229.437,49.103z M229.437,48.458v-3.462
		c-0.997,0.397-1.639,0.678-1.929,0.843c-0.521,0.291-0.894,0.595-1.118,0.913c-0.224,0.317-0.336,0.665-0.336,1.042
		c0,0.477,0.142,0.872,0.425,1.186c0.284,0.314,0.61,0.471,0.98,0.471C227.959,49.45,228.619,49.119,229.437,48.458z"/>
	<path d="M235.976,42.978c1.062-1.281,2.074-1.921,3.036-1.921c0.494,0,0.919,0.125,1.275,0.373s0.64,0.657,0.851,1.227
		c0.145,0.397,0.217,1.006,0.217,1.827v3.883c0,0.574,0.046,0.963,0.139,1.167c0.073,0.165,0.19,0.293,0.352,0.386
		c0.162,0.092,0.461,0.139,0.897,0.139v0.357h-4.507v-0.357h0.188c0.423,0,0.719-0.064,0.887-0.193s0.286-0.318,0.352-0.569
		c0.026-0.099,0.04-0.409,0.04-0.93v-3.728c0-0.828-0.106-1.429-0.32-1.804c-0.213-0.375-0.572-0.562-1.077-0.562
		c-0.78,0-1.558,0.431-2.331,1.291v4.803c0,0.613,0.036,0.993,0.109,1.138c0.093,0.191,0.221,0.332,0.383,0.42
		c0.163,0.089,0.492,0.134,0.989,0.134v0.357h-4.507v-0.357h0.198c0.461,0,0.773-0.117,0.935-0.351
		c0.161-0.234,0.242-0.681,0.242-1.341v-3.384c0-1.091-0.025-1.755-0.075-1.993s-0.126-0.4-0.229-0.486
		c-0.103-0.086-0.241-0.129-0.413-0.129c-0.186,0-0.408,0.05-0.667,0.149l-0.149-0.357l2.756-1.11h0.43V42.978z"/>
</g>
<g>
	<path d="M372.861,41.783v-0.417c0.672-0.377,1.113-0.72,1.322-1.027c0.209-0.308,0.314-0.663,0.314-1.066
		c0-0.186-0.033-0.324-0.1-0.417c-0.073-0.092-0.153-0.139-0.239-0.139c-0.066,0-0.173,0.027-0.319,0.079
		c-0.147,0.053-0.293,0.08-0.439,0.08c-0.279,0-0.519-0.099-0.718-0.297c-0.2-0.198-0.299-0.439-0.299-0.723
		c0-0.317,0.127-0.594,0.382-0.832c0.255-0.237,0.564-0.356,0.928-0.356c0.438,0,0.832,0.188,1.187,0.565
		c0.354,0.377,0.531,0.853,0.531,1.428c0,0.694-0.224,1.328-0.669,1.903C374.293,41.139,373.667,41.545,372.861,41.783z
		 M377.591,41.783v-0.417c0.579-0.298,0.997-0.613,1.254-0.948c0.256-0.334,0.384-0.696,0.384-1.087c0-0.231-0.033-0.394-0.1-0.486
		c-0.066-0.086-0.14-0.129-0.22-0.129c-0.087,0-0.203,0.027-0.35,0.079c-0.153,0.053-0.287,0.08-0.4,0.08
		c-0.273,0-0.511-0.103-0.714-0.307c-0.203-0.204-0.305-0.448-0.305-0.732c0-0.316,0.123-0.59,0.369-0.821s0.547-0.347,0.906-0.347
		c0.452,0,0.856,0.193,1.215,0.58s0.538,0.861,0.538,1.422c0,0.661-0.22,1.277-0.662,1.849
		C379.065,41.091,378.426,41.512,377.591,41.783z"/>
</g>
</svg>
